<?xml version="1.0" encoding="UTF-8" standalone="no"?>
<!-- Created with Inkscape (http://www.inkscape.org/) -->

<svg
   width="512"
   height="512"
   viewBox="0 0 512 512"
   version="1.1"
   id="svg1"
   xml:space="preserve"
   inkscape:version="1.4.2 (f4327f4, 2025-05-13)"
   sodipodi:docname="clerkIcon.svg"
   xmlns:inkscape="http://www.inkscape.org/namespaces/inkscape"
   xmlns:sodipodi="http://sodipodi.sourceforge.net/DTD/sodipodi-0.dtd"
   xmlns="http://www.w3.org/2000/svg"
   xmlns:svg="http://www.w3.org/2000/svg"><sodipodi:namedview
     id="namedview1"
     pagecolor="#ffffff"
     bordercolor="#000000"
     borderopacity="0.25"
     inkscape:showpageshadow="2"
     inkscape:pageopacity="0.0"
     inkscape:pagecheckerboard="0"
     inkscape:deskcolor="#d1d1d1"
     inkscape:document-units="px"
     showguides="true"
     inkscape:zoom="1"
     inkscape:cx="182.5"
     inkscape:cy="335.5"
     inkscape:window-width="1920"
     inkscape:window-height="991"
     inkscape:window-x="-9"
     inkscape:window-y="-9"
     inkscape:window-maximized="1"
     inkscape:current-layer="svg1" /><defs
     id="defs1" /><rect
     style="fill:#9333ea;fill-opacity:1.0;stroke-width:0.893025;stroke-linecap:square;stroke-linejoin:round;stroke-miterlimit:0"
     id="rect12"
     width="457.22879"
     height="457.22879"
     x="27.385599"
     y="27.385599"
     rx="52"
  ry="52"
  inkscape:label="bg" /><!-- background removed - use CSS background -->
    <g
     id="g12"
     transform="translate(0,10.000002)"
     style="fill:#ffffff"
     inkscape:label="shield-icon"><path
       id="path1-9-3-7"
       style="fill:#ffffff;fill-opacity:1;stroke-width:4.3049"
       d="m 256,117.4 c 0,0 -21.6,25.55977 -37.8,32.03965 -16.2,6.47988 -59.4,-2.16035 -59.4,-2.16035 0,0 -8.93701,52.00376 0,81.5207 16.92627,55.90368 97.2,145.8 97.2,145.8 0,0 80.27373,-89.89632 97.2,-145.8 8.93701,-29.51694 0,-81.5207 0,-81.5207 0,0 -42.3135,9.13867 -59.4,2.16035 C 278.13805,143.04313 256,117.4 256,117.4 Z"
       sodipodi:nodetypes="cscscscsc"
       inkscape:label="inner-icon" /><path
       id="path11"
       style="fill:#ffffff;fill-opacity:1;stroke-width:4.78322"
       d="m 256,69.660156 c 0,0 -29.04031,34.364324 -50.82031,43.076174 -21.78,8.71184 -79.85938,-2.90625 -79.85938,-2.90625 0,0 -12.01531,76.80634 0,116.49023 C 148.07675,301.4797 256,422.33984 256,422.33984 c 0,0 107.92325,-120.86014 130.67969,-196.01953 12.01531,-39.68389 0,-116.49023 0,-116.49023 0,0 -56.88753,12.28821 -79.85938,2.90625 C 285.76368,104.13657 256,69.660156 256,69.660156 Z M 256,102 c 0,0 24.59783,28.49237 42,35.59961 18.985,7.75369 66,-2.40039 66,-2.40039 0,0 9.93001,60.00418 0,92.80078 -18.80697,62.1152 -108,162 -108,162 0,0 -89.19303,-99.8848 -108,-162 -9.93001,-32.7966 0,-92.80078 0,-92.80078 0,0 48,9.60026 66,2.40039 C 232,130.39974 256,102 256,102 Z"
       sodipodi:nodetypes="cscscscsccscscscsc"
       inkscape:label="outer-line" /></g></svg>